# xmcd
#
# Track frame offsets:
#	150
#	26012
#	53749
#	73160
#	90366
#	118683
#	137023
#	159219
#	176885
#	191738
#	209080
#	230539
#	258651
#
# Disc length: 3774 seconds
#
# Revision: 0
# Processed by: cddbd v1.5.2PL0 Copyright (c) Steve Scherf et al.
# Submitted via: dBpowerAMP V4.0
#
DISCID=bd0ebc0d
DTITLE=Jose Cruz - Lección de Vida
DYEAR=2009
DGENRE=Blues
TTITLE0=Intro-Aliento de fuego
TTITLE1=Sobre mesones
TTITLE2=Viaje personal
TTITLE3=Mercado de angeles
TTITLE4=La bacha
TTITLE5=Blues del Missisippi
TTITLE6=Tres dias
TTITLE7=Blues de la esclerosis
TTITLE8=Leccion de vida
TTITLE9=Me quede sin ti
TTITLE10=Blues nocturno
TTITLE11=Tu cama
TTITLE12=Hay fuego en mi guitarra
EXTD=
EXTT0=
EXTT1=
EXTT2=
EXTT3=
EXTT4=
EXTT5=
EXTT6=
EXTT7=
EXTT8=
EXTT9=
EXTT10=
EXTT11=
EXTT12=
PLAYORDER=
